  0
SECTION
  2
HEADER
  9
$ACADVER
  1
AC1014
  9
$ACADMAINTVER
 70
         0
  9
$DWGCODEPAGE
  3
ANSI_1252
  9
$INSBASE
 10
0.0
 20
0.0
 30
0.0
  9
$EXTMIN
 10
0.0
 20
0.0
 30
0.0
  9
$EXTMAX
 10
594.0
 20
420.0
 30
0.0
  9
$LIMMIN
 10
0.0
 20
0.0
  9
$LIMMAX
 10
594.0
 20
420.0
  9
$ORTHOMODE
 70
         0
  9
$REGENMODE
 70
         1
  9
$FILLMODE
 70
         1
  9
$QTEXTMODE
 70
         0
  9
$MIRRTEXT
 70
         1
  9
$DRAGMODE
 70
         2
  9
$LTSCALE
 40
25.4
  9
$OSMODE
 70
         0
  9
$ATTMODE
 70
         1
  9
$TEXTSIZE
 40
0.2
  9
$TRACEWID
 40
0.05
  9
$TEXTSTYLE
  7
Standard
  9
$CLAYER
  8
0
  9
$CELTYPE
  6
CONTINUOUS
  9
$CECOLOR
 62
       256
  9
$CELTSCALE
 40
1.0
  9
$DELOBJ
 70
         1
  9
$DISPSILH
 70
         0
  9
$DIMSCALE
 40
1.0
  9
$DIMASZ
 40
0.18
  9
$DIMEXO
 40
0.0625
  9
$DIMDLI
 40
0.38
  9
$DIMRND
 40
0.0
  9
$DIMDLE
 40
0.0
  9
$DIMEXE
 40
0.18
  9
$DIMTP
 40
0.0
  9
$DIMTM
 40
0.0
  9
$DIMTXT
 40
0.18
  9
$DIMCEN
 40
0.09
  9
$DIMTSZ
 40
0.0
  9
$DIMTOL
 70
         0
  9
$DIMLIM
 70
         0
  9
$DIMTIH
 70
         1
  9
$DIMTOH
 70
         1
  9
$DIMSE1
 70
         0
  9
$DIMSE2
 70
         0
  9
$DIMTAD
 70
         0
  9
$DIMZIN
 70
         0
  9
$DIMBLK
  1

  9
$DIMASO
 70
         1
  9
$DIMSHO
 70
         1
  9
$DIMPOST
  1

  9
$DIMAPOST
  1

  9
$DIMALT
 70
         0
  9
$DIMALTD
 70
         2
  9
$DIMALTF
 40
25.4
  9
$DIMLFAC
 40
1.0
  9
$DIMTOFL
 70
         0
  9
$DIMTVP
 40
0.0
  9
$DIMTIX
 70
         0
  9
$DIMSOXD
 70
         0
  9
$DIMSAH
 70
         0
  9
$DIMBLK1
  1

  9
$DIMBLK2
  1

  9
$DIMSTYLE
  2
Standard
  9
$DIMCLRD
 70
         0
  9
$DIMCLRE
 70
         0
  9
$DIMCLRT
 70
         0
  9
$DIMTFAC
 40
1.0
  9
$DIMGAP
 40
0.09
  9
$DIMJUST
 70
         0
  9
$DIMSD1
 70
         0
  9
$DIMSD2
 70
         0
  9
$DIMTOLJ
 70
         1
  9
$DIMTZIN
 70
         0
  9
$DIMALTZ
 70
         0
  9
$DIMALTTZ
 70
         0
  9
$DIMFIT
 70
         3
  9
$DIMUPT
 70
         0
  9
$DIMUNIT
 70
         2
  9
$DIMDEC
 70
         4
  9
$DIMTDEC
 70
         4
  9
$DIMALTU
 70
         2
  9
$DIMALTTD
 70
         2
  9
$DIMTXSTY
  7
Standard
  9
$DIMAUNIT
 70
         0
  9
$LUNITS
 70
         2
  9
$LUPREC
 70
         4
  9
$SKETCHINC
 40
0.1
  9
$FILLETRAD
 40
0.0
  9
$AUNITS
 70
         0
  9
$AUPREC
 70
         0
  9
$MENU
  1
acad
  9
$ELEVATION
 40
0.0
  9
$PELEVATION
 40
0.0
  9
$THICKNESS
 40
0.0
  9
$LIMCHECK
 70
         0
  9
$BLIPMODE
 70
         1
  9
$CHAMFERA
 40
0.0
  9
$CHAMFERB
 40
0.0
  9
$CHAMFERC
 40
0.0
  9
$CHAMFERD
 40
0.0
  9
$SKPOLY
 70
         0
  9
$TDCREATE
 40
0.000000000
  9
$TDUPDATE
 40
0.000000000
  9
$TDINDWG
 40
0.0000000000
  9
$TDUSRTIMER
 40
0.0000000000
  9
$USRTIMER
 70
         1
  9
$ANGBASE
 50
0.0
  9
$ANGDIR
 70
         0
  9
$PDMODE
 70
         0
  9
$PDSIZE
 40
0.0
  9
$PLINEWID
 40
0.0
  9
$COORDS
 70
         0
  9
$SPLFRAME
 70
         0
  9
$SPLINETYPE
 70
         6
  9
$SPLINESEGS
 70
         8
  9
$ATTDIA
 70
         0
  9
$ATTREQ
 70
         1
  9
$HANDLING
 70
         1
  9
$HANDSEED
  5
13E
  9
$SURFTAB1
 70
         6
  9
$SURFTAB2
 70
         6
  9
$SURFTYPE
 70
         6
  9
$SURFU
 70
         6
  9
$SURFV
 70
         6
  9
$UCSNAME
  2

  9
$UCSORG
 10
0.0
 20
0.0
 30
0.0
  9
$UCSXDIR
 10
1.0
 20
0.0
 30
0.0
  9
$UCSYDIR
 10
0.0
 20
1.0
 30
0.0
  9
$PUCSNAME
  2

  9
$PUCSORG
 10
0.0
 20
0.0
 30
0.0
  9
$PUCSXDIR
 10
1.0
 20
0.0
 30
0.0
  9
$PUCSYDIR
 10
0.0
 20
1.0
 30
0.0
  9
$USERI1
 70
         0
  9
$USERI2
 70
         0
  9
$USERI3
 70
         0
  9
$USERI4
 70
         0
  9
$USERI5
 70
         0
  9
$USERR1
 40
0.0
  9
$USERR2
 40
0.0
  9
$USERR3
 40
0.0
  9
$USERR4
 40
0.0
  9
$USERR5
 40
0.0
  9
$WORLDVIEW
 70
         1
  9
$SHADEDGE
 70
         3
  9
$SHADEDIF
 70
        70
  9
$TILEMODE
 70
         1
  9
$MAXACTVP
 70
        16
  9
$PINSBASE
 10
0.0
 20
0.0
 30
0.0
  9
$PLIMCHECK
 70
         0
  9
$PEXTMIN
 10
1.0000000000E+20
 20
1.0000000000E+20
 30
1.0000000000E+20
  9
$PEXTMAX
 10
-1.0000000000E+20
 20
-1.0000000000E+20
 30
-1.0000000000E+20
  9
$PLIMMIN
 10
0.0
 20
0.0
  9
$PLIMMAX
 10
12.0
 20
9.0
  9
$UNITMODE
 70
         0
  9
$VISRETAIN
 70
         0
  9
$PLINEGEN
 70
         1
  9
$PSLTSCALE
 70
         0
  9
$TREEDEPTH
 70
      3020
  9
$PICKSTYLE
 70
         1
  9
$CMLSTYLE
  2
Standard
  9
$CMLJUST
 70
         0
  9
$CMLSCALE
 40
1.0
  9
$PROXYGRAPHICS
 70
         0
  9
$MEASUREMENT
 70
         0
  0
ENDSEC
  0
SECTION
  2
CLASSES
  0
CLASS
  1
LWPOLYLINE
  2
AcDbPolyline
  3
"AutoCAD"
 90
        0
280
         0
281
         1
  0
CLASS
  1
IMAGE
  2
AcDbRasterImage
  3
ISM
 90
      127
280
         0
281
         1
  0
CLASS
  1
OLE2FRAME
  2
AcDbOle2Frame
  3
""
 90
        0
280
         0
281
         1
  0
CLASS
  1
HATCH
  2
AcDbHatch
  3
"ACAD_SEDONA"
 90
        0
280
         0
281
         1
  0
CLASS
  1
DICTIONARYVAR
  2
AcDbDictionaryVar
  3
"AutoCAD"
 90
        0
280
         0
281
         0
  0
CLASS
  1
RASTERVARIABLES
  2
AcDbRasterVariables
  3
ISM
 90
        0
280
         0
281
         0
  0
CLASS
  1
IMAGEDEF
  2
AcDbRasterImageDef
  3
ISM
 90
        0
280
         0
281
         0
  0
CLASS
  1
IMAGEDEF_REACTOR
  2
AcDbRasterImageDefReactor
  3
ISM
 90
        1
280
         0
281
         0
  0
CLASS
  1
IDBUFFER
  2
AcDbIdBuffer
  3
"Acad"
 90
        0
280
         0
281
         0
  0
CLASS
  1
SPATIAL_FILTER
  2
AcDbSpatialFilter
  3
"Acad"
 90
        0
280
         0
281
         0
  0
CLASS
  1
XRECORD
  2
AcDbXrecord
  3
"<Built In>"
 90
        0
280
         0
281
         0
  0
CLASS
  1
SORTENTSTABLE
  2
AcDbSortentsTable
  3
"AutoCAD"
 90
        0
280
         0
281
         0
  0
CLASS
  1
LAYER_INDEX
  2
AcDbLayerIndex
  3
"Acad"
 90
        0
280
         0
281
         0
  0
CLASS
  1
SPATIAL_INDEX
  2
AcDbSpatialIndex
  3
"Acad"
 90
        0
280
         0
281
         0
  0
CLASS
  1
OBJECT_PTR
  2
CAseDLPNTableRecord
  3
"ASE-LPNTableRecord"
 90
        1
280
         0
281
         0
  0
CLASS
  1
LAYOUT
  2
AcDbLayout
  3
"AutoCAD 2000"
 90
        1
280
         0
281
         0
  0
CLASS
  1
PLOTSETTINGS
  2
AcDbPlotSettings
  3
"AutoCAD 2000"
 90
        1
280
         0
281
         0
  0
CLASS
  1
ACDBDICTIONARYWDFLT
  2
AcDbDictionaryWithDefault
  3
"AutoCAD 2000"
 90
        1
280
         0
281
         0
  0
CLASS
  1
ACDBPLACEHOLDER
  2
AcDbPlaceHolder
  3
"AutoCAD 2000"
 90
        1
280
         0
281
         0
  0
CLASS
  1
VBA_PROJECT
  2
AcDbVbaProject
  3
"acadvba"
 90
        1
280
         0
281
         0
  0
CLASS
  1
WIPEOUT
  2
AcDbWipeout
  3
WipeOut|AutoCAD Express Tool|expresstools@autodesk.com
 90
      127
280
         0
281
         1
  0
CLASS
  1
WIPEOUTVARIABLES
  2
AcDbWipeoutVariables
  3
WipeOut|AutoCAD Express Tool|expresstools@autodesk.com
 90
        0
280
         0
281
         0
  0
CLASS
  1
RTEXT
  2
RText
  3
RText|AutoCAD Express Tool|expresstools@autodesk.com
 90
        0
280
         0
281
         1
  0
CLASS
  1
ARCALIGNEDTEXT
  2
AcDbArcAlignedText
  3
ATEXT|AutoCAD Express Tool|expresstools@autodesk.com
 90
        0
280
         0
281
         1
  0
ENDSEC
  0
SECTION
  2
TABLES
  0
TABLE
  2
VPORT
  5
7
100
AcDbSymbolTable
 70
         1
  0
VPORT
  5
15
100
AcDbSymbolTableRecord
100
AcDbViewportTableRecord
  2
*ACTIVE
 70
         0
 10
0.0
 20
0.0
 11
1.0
 21
1.0
 12
297.0
 22
210.0
 13
0.0
 23
0.0
 14
1.0
 24
1.0
 15
0.0
 25
0.0
 16
0.0
 26
0.0
 36
1.0
 17
0.0
 27
0.0
 37
0.0
 40
420.0
 41
1.604229
 42
50.0
 43
0.0
 44
0.0
 50
0.0
 51
0.0
 71
         0
 72
       100
 73
         1
 74
         1
 75
         0
 76
         0
 77
         0
 78
         0
  0
ENDTAB
  0
TABLE
  2
LTYPE
  5
4
100
AcDbSymbolTable
 70
         7
  0
LTYPE
  5
11
100
AcDbSymbolTableRecord
100
AcDbLinetypeTableRecord
  2
ByBlock
 70
        64
  3

 72
        65
 73
         0
 40
0.0
  0
LTYPE
  5
12
100
AcDbSymbolTableRecord
100
AcDbLinetypeTableRecord
  2
ByLayer
 70
        64
  3

 72
        65
 73
         0
 40
0.0
  0
LTYPE
  5
13
100
AcDbSymbolTableRecord
100
AcDbLinetypeTableRecord
  2
CONTINUOUS
 70
         0
  3
Solid line
 72
        65
 73
         0
 40
0.0
  0
LTYPE
  5
21
100
AcDbSymbolTableRecord
100
AcDbLinetypeTableRecord
  2
HIDDEN2
 70
        64
  3
_ _ _ _ _ _ _ _ _ _ _ _ _ _ _ _ _ _ _ _ _ _ _ _
 72
        65
 73
         2
 40
0.1875
 49
0.125
 74
         0
 49
-0.0625
 74
         0
  0
LTYPE
  5
22
100
AcDbSymbolTableRecord
100
AcDbLinetypeTableRecord
  2
CENTER2
 70
        64
  3
___ _ ___ _ ___ _ ___ _ ___ _ ___ _ ___ _ ___ _
 72
        65
 73
         4
 40
1.125
 49
0.75
 74
         0
 49
-0.125
 74
         0
 49
0.125
 74
         0
 49
-0.125
 74
         0
  0
LTYPE
  5
23
100
AcDbSymbolTableRecord
100
AcDbLinetypeTableRecord
  2
PHANTOM2
 70
        64
  3
___ _ _ ___ _ _ ___ _ _ ___ _ _ ___ _ _ ___ _ _
 72
        65
 73
         6
 40
1.25
 49
0.625
 74
         0
 49
-0.125
 74
         0
 49
0.125
 74
         0
 49
-0.125
 74
         0
 49
0.125
 74
         0
 49
-0.125
 74
         0
  0
LTYPE
  5
24
100
AcDbSymbolTableRecord
100
AcDbLinetypeTableRecord
  2
DOT2
 70
        64
  3
...............................................
 72
        65
 73
         2
 40
0.125
 49
0.0
 74
         0
 49
-0.125
 74
         0
  0
ENDTAB
  0
TABLE
  2
LAYER
  5
2
100
AcDbSymbolTable
 70
         4
  0
LAYER
  5
14
100
AcDbSymbolTableRecord
100
AcDbLayerTableRecord
  2
0
 70
         0
 62
         7
  6
CONTINUOUS
  0
LAYER
  5
26
100
AcDbSymbolTableRecord
100
AcDbLayerTableRecord
  2
DEFAULT
 70
         0
 62
         7
  6
CONTINUOUS
  0
LAYER
  5
2C
100
AcDbSymbolTableRecord
100
AcDbLayerTableRecord
  2
STANDARD
 70
         0
 62
         7
  6
CONTINUOUS
  0
LAYER
  5
30
100
AcDbSymbolTableRecord
100
AcDbLayerTableRecord
  2
MPG_WHEEL_MOUNT
 70
         0
 62
         7
  6
CONTINUOUS
  0
ENDTAB
  0
TABLE
  2
STYLE
  5
3
100
AcDbSymbolTable
 70
         4
  0
STYLE
  5
17
100
AcDbSymbolTableRecord
100
AcDbTextStyleTableRecord
  2
Standard
 70
         0
 40
0.0
 41
1.0
 50
0.0
 71
         0
 42
0.2
  3
txt
  4

  0
STYLE
  5
49
100
AcDbSymbolTableRecord
100
AcDbTextStyleTableRecord
  2
seiso_ttf
 70
         0
 40
0.0
 41
1.0
 50
0.0
 71
         0
 42
0.2
  3
seiso.ttf
  4

1001
ACAD
1000
Solid Edge ISO
1071
        2
  0
STYLE
  5
72
100
AcDbSymbolTableRecord
100
AcDbTextStyleTableRecord
  2
seiso_ttfBI
 70
         0
 40
0.0
 41
1.0
 50
0.0
 71
         0
 42
0.2
  3
seiso.ttf
  4

1001
ACAD
1000
Solid Edge ISO
1071
 50331650
  0
STYLE
  5
77
100
AcDbSymbolTableRecord
100
AcDbTextStyleTableRecord
  2
seiso_ttfB
 70
         0
 40
0.0
 41
1.0
 50
0.0
 71
         0
 42
0.2
  3
seiso.ttf
  4

1001
ACAD
1000
Solid Edge ISO
1071
 33554434
  0
ENDTAB
  0
TABLE
  2
VIEW
  5
5
100
AcDbSymbolTable
 70
         0
  0
ENDTAB
  0
TABLE
  2
UCS
  5
6
100
AcDbSymbolTable
 70
         0
  0
ENDTAB
  0
TABLE
  2
APPID
  5
8
100
AcDbSymbolTable
 70
         1
  0
APPID
  5
16
100
AcDbSymbolTableRecord
100
AcDbRegAppTableRecord
  2
ACAD
 70
         0
  0
ENDTAB
  0
TABLE
  2
DIMSTYLE
  5
9
100
AcDbSymbolTable
 70
         1
  0
DIMSTYLE
105
18
100
AcDbSymbolTableRecord
100
AcDbDimStyleTableRecord
  2
Standard
 70
         0
  3

  4

  5

  6

  7

 40
1.0
 41
0.18
 42
0.0625
 43
0.38
 44
0.18
 45
0.0
 46
0.0
 47
0.0
 48
0.0
 71
         0
 72
         0
 73
         1
 74
         1
 75
         0
 76
         0
 77
         0
 78
         0
140
0.18
141
0.09
142
0.0
143
25.4
144
1.0
145
0.0
146
1.0
147
0.09
170
         0
171
         2
172
         0
173
         0
174
         0
175
         0
176
         0
177
         0
178
         0
270
         2
271
         4
272
         4
273
         2
274
         2
275
         0
280
         0
281
         0
282
         0
283
         1
284
         0
285
         0
286
         0
287
         0
288
         0
340
17
  0
ENDTAB
  0
TABLE
  2
BLOCK_RECORD
  5
1
100
AcDbSymbolTable
 70
        12
  0
BLOCK_RECORD
  5
A
100
AcDbSymbolTableRecord
100
AcDbBlockTableRecord
  2
*MODEL_SPACE
  0
BLOCK_RECORD
  5
B
100
AcDbSymbolTableRecord
100
AcDbBlockTableRecord
  2
*PAPER_SPACE
  0
BLOCK_RECORD
  5
31
100
AcDbSymbolTableRecord
100
AcDbBlockTableRecord
  2
SE0
  0
BLOCK_RECORD
  5
32
100
AcDbSymbolTableRecord
100
AcDbBlockTableRecord
  2
SE1
  0
BLOCK_RECORD
  5
38
100
AcDbSymbolTableRecord
100
AcDbBlockTableRecord
  2
SE2
  0
BLOCK_RECORD
  5
39
100
AcDbSymbolTableRecord
100
AcDbBlockTableRecord
  2
SE3
  0
BLOCK_RECORD
  5
3F
100
AcDbSymbolTableRecord
100
AcDbBlockTableRecord
  2
SE4
  0
BLOCK_RECORD
  5
40
100
AcDbSymbolTableRecord
100
AcDbBlockTableRecord
  2
SE5
  0
BLOCK_RECORD
  5
46
100
AcDbSymbolTableRecord
100
AcDbBlockTableRecord
  2
SE6
  0
BLOCK_RECORD
  5
4B
100
AcDbSymbolTableRecord
100
AcDbBlockTableRecord
  2
SE7
  0
BLOCK_RECORD
  5
6D
100
AcDbSymbolTableRecord
100
AcDbBlockTableRecord
  2
SE8
  0
BLOCK_RECORD
  5
70
100
AcDbSymbolTableRecord
100
AcDbBlockTableRecord
  2
SE9
  0
BLOCK_RECORD
  5
7B
100
AcDbSymbolTableRecord
100
AcDbBlockTableRecord
  2
SE10
  0
BLOCK_RECORD
  5
7F
100
AcDbSymbolTableRecord
100
AcDbBlockTableRecord
  2
SE11
  0
ENDTAB
  0
ENDSEC
  0
SECTION
  2
BLOCKS
  0
BLOCK
  5
D
100
AcDbEntity
  8
0
100
AcDbBlockBegin
  2
*MODEL_SPACE
 70
         0
 10
0.0
 20
0.0
 30
0.0
  3
*MODEL_SPACE
  1

  0
ENDBLK
  5
E
100
AcDbEntity
  8
0
100
AcDbBlockEnd
  0
BLOCK
  5
F
100
AcDbEntity
 67
         1
  8
0
100
AcDbBlockBegin
  2
*PAPER_SPACE
 70
         0
 10
0.0
 20
0.0
 30
0.0
  3
*PAPER_SPACE
  1

  0
ENDBLK
  5
10
100
AcDbEntity
 67
         1
  8
0
100
AcDbBlockEnd
  0
BLOCK
  5
B5
100
AcDbEntity
  8
0
 62
         1
 48
0.0
100
AcDbBlockBegin
  2
SE0
 70
         0
 10
0.0
 20
0.0
 30
0.0
  3
SE0
  1

  0
ENDBLK
  5
B6
100
AcDbEntity
  8
0
 62
         1
 48
0.0
100
AcDbBlockEnd
  0
BLOCK
  5
8C
100
AcDbEntity
  8
0
 62
         1
 48
0.0
100
AcDbBlockBegin
  2
SE1
 70
         0
 10
0.0
 20
0.0
 30
0.0
  3
SE1
  1

  0
LINE
  5
8D
100
AcDbEntity
  8
MPG_WHEEL_MOUNT
  6
CONTINUOUS
 62
         7
100
AcDbLine
 10
145.6852911956
 20
232.2098603717
 30
0.0
 11
156.4852911956
 21
232.2098603717
 31
0.0
  0
ARC
  5
8E
100
AcDbEntity
  8
MPG_WHEEL_MOUNT
  6
CONTINUOUS
 62
         7
100
AcDbCircle
 10
171.4052911956
 20
277.4998603736
 30
0.0
 40
21.5
100
AcDbArc
 50
203.2877319237
 51
336.7122680763
  0
LINE
  5
8F
100
AcDbEntity
  8
MPG_WHEEL_MOUNT
  6
CONTINUOUS
 62
         7
100
AcDbLine
 10
191.1537088529
 20
268.9998603717
 30
0.0
 11
203.4052911956
 21
268.9998603717
 31
0.0
  0
LINE
  5
90
100
AcDbEntity
  8
MPG_WHEEL_MOUNT
  6
CONTINUOUS
 62
         7
100
AcDbLine
 10
203.4052911956
 20
268.9998603717
 30
0.0
 11
203.4052911956
 21
223.9998603717
 31
0.0
  0
LINE
  5
91
100
AcDbEntity
  8
MPG_WHEEL_MOUNT
  6
CONTINUOUS
 62
         7
100
AcDbLine
 10
139.4052911956
 20
268.9998603717
 30
0.0
 11
151.6568735383
 21
268.9998603717
 31
0.0
  0
LINE
  5
92
100
AcDbEntity
  8
MPG_WHEEL_MOUNT
  6
CONTINUOUS
 62
         7
100
AcDbLine
 10
139.4052911956
 20
223.9998603717
 30
0.0
 11
139.4052911956
 21
268.9998603717
 31
0.0
  0
LINE
  5
93
100
AcDbEntity
  8
MPG_WHEEL_MOUNT
  6
CONTINUOUS
 62
         7
100
AcDbLine
 10
203.4052911956
 20
223.9998603717
 30
0.0
 11
139.4052911956
 21
223.9998603717
 31
0.0
  0
LINE
  5
94
100
AcDbEntity
  8
MPG_WHEEL_MOUNT
  6
CONTINUOUS
 62
         7
100
AcDbLine
 10
145.6852911956
 20
243.0098603717
 30
0.0
 11
145.6852911956
 21
232.2098603717
 31
0.0
  0
LINE
  5
95
100
AcDbEntity
  8
MPG_WHEEL_MOUNT
  6
CONTINUOUS
 62
         7
100
AcDbLine
 10
156.4852911956
 20
232.2098603717
 30
0.0
 11
156.4852911956
 21
243.0098603717
 31
0.0
  0
LINE
  5
96
100
AcDbEntity
  8
MPG_WHEEL_MOUNT
  6
CONTINUOUS
 62
         7
100
AcDbLine
 10
194.5852911956
 20
232.2098603717
 30
0.0
 11
194.5852911956
 21
243.0098603717
 31
0.0
  0
LINE
  5
97
100
AcDbEntity
  8
MPG_WHEEL_MOUNT
  6
CONTINUOUS
 62
         7
100
AcDbLine
 10
183.7852911956
 20
243.0098603717
 30
0.0
 11
183.7852911956
 21
232.2098603717
 31
0.0
  0
LINE
  5
98
100
AcDbEntity
  8
MPG_WHEEL_MOUNT
  6
CONTINUOUS
 62
         7
100
AcDbLine
 10
194.5852911956
 20
243.0098603717
 30
0.0
 11
183.7852911956
 21
243.0098603717
 31
0.0
  0
LINE
  5
99
100
AcDbEntity
  8
MPG_WHEEL_MOUNT
  6
CONTINUOUS
 62
         7
100
AcDbLine
 10
183.7852911956
 20
232.2098603717
 30
0.0
 11
194.5852911956
 21
232.2098603717
 31
0.0
  0
LINE
  5
9A
100
AcDbEntity
  8
MPG_WHEEL_MOUNT
  6
CONTINUOUS
 62
         7
100
AcDbLine
 10
181.8852911956
 20
232.2098603717
 30
0.0
 11
181.8852911956
 21
243.0098603717
 31
0.0
  0
LINE
  5
9B
100
AcDbEntity
  8
MPG_WHEEL_MOUNT
  6
CONTINUOUS
 62
         7
100
AcDbLine
 10
181.8852911956
 20
243.0098603717
 30
0.0
 11
171.0852911956
 21
243.0098603717
 31
0.0
  0
LINE
  5
9C
100
AcDbEntity
  8
MPG_WHEEL_MOUNT
  6
CONTINUOUS
 62
         7
100
AcDbLine
 10
171.0852911956
 20
232.2098603717
 30
0.0
 11
181.8852911956
 21
232.2098603717
 31
0.0
  0
LINE
  5
9D
100
AcDbEntity
  8
MPG_WHEEL_MOUNT
  6
CONTINUOUS
 62
         7
100
AcDbLine
 10
171.0852911956
 20
243.0098603717
 30
0.0
 11
171.0852911956
 21
232.2098603717
 31
0.0
  0
LINE
  5
9E
100
AcDbEntity
  8
MPG_WHEEL_MOUNT
  6
CONTINUOUS
 62
         7
100
AcDbLine
 10
169.1852911956
 20
232.2098603717
 30
0.0
 11
169.1852911956
 21
243.0098603717
 31
0.0
  0
LINE
  5
9F
100
AcDbEntity
  8
MPG_WHEEL_MOUNT
  6
CONTINUOUS
 62
         7
100
AcDbLine
 10
158.3852911956
 20
232.2098603717
 30
0.0
 11
169.1852911956
 21
232.2098603717
 31
0.0
  0
LINE
  5
A0
100
AcDbEntity
  8
MPG_WHEEL_MOUNT
  6
CONTINUOUS
 62
         7
100
AcDbLine
 10
158.3852911956
 20
243.0098603717
 30
0.0
 11
158.3852911956
 21
232.2098603717
 31
0.0
  0
LINE
  5
A1
100
AcDbEntity
  8
MPG_WHEEL_MOUNT
  6
CONTINUOUS
 62
         7
100
AcDbLine
 10
169.1852911956
 20
243.0098603717
 30
0.0
 11
158.3852911956
 21
243.0098603717
 31
0.0
  0
ARC
  5
A2
100
AcDbEntity
  8
MPG_WHEEL_MOUNT
  6
CONTINUOUS
 62
         7
100
AcDbCircle
 10
143.4652911956
 20
264.2798603717
 30
0.0
 40
1.0
100
AcDbArc
 50
0.0
 51
180.0
  0
ARC
  5
A3
100
AcDbEntity
  8
MPG_WHEEL_MOUNT
  6
CONTINUOUS
 62
         7
100
AcDbCircle
 10
143.4652911956
 20
264.2798603717
 30
0.0
 40
1.0
100
AcDbArc
 50
180.0
 51
360.0
  0
ARC
  5
A4
100
AcDbEntity
  8
MPG_WHEEL_MOUNT
  6
CONTINUOUS
 62
         7
100
AcDbCircle
 10
143.4652911956
 20
228.7198603717
 30
0.0
 40
1.0
100
AcDbArc
 50
0.0
 51
180.0
  0
ARC
  5
A5
100
AcDbEntity
  8
MPG_WHEEL_MOUNT
  6
CONTINUOUS
 62
         7
100
AcDbCircle
 10
143.4652911956
 20
228.7198603717
 30
0.0
 40
1.0
100
AcDbArc
 50
180.0
 51
360.0
  0
ARC
  5
A6
100
AcDbEntity
  8
MPG_WHEEL_MOUNT
  6
CONTINUOUS
 62
         7
100
AcDbCircle
 10
199.3452911956
 20
264.2798603717
 30
0.0
 40
1.0
100
AcDbArc
 50
0.0
 51
180.0
  0
ARC
  5
A7
100
AcDbEntity
  8
MPG_WHEEL_MOUNT
  6
CONTINUOUS
 62
         7
100
AcDbCircle
 10
199.3452911956
 20
264.2798603717
 30
0.0
 40
1.0
100
AcDbArc
 50
180.0
 51
360.0
  0
ARC
  5
A8
100
AcDbEntity
  8
MPG_WHEEL_MOUNT
  6
CONTINUOUS
 62
         7
100
AcDbCircle
 10
199.3452911956
 20
228.7198603717
 30
0.0
 40
1.0
100
AcDbArc
 50
0.0
 51
180.0
  0
ARC
  5
A9
100
AcDbEntity
  8
MPG_WHEEL_MOUNT
  6
CONTINUOUS
 62
         7
100
AcDbCircle
 10
199.3452911956
 20
228.7198603717
 30
0.0
 40
1.0
100
AcDbArc
 50
180.0
 51
360.0
  0
ARC
  5
AA
100
AcDbEntity
  8
MPG_WHEEL_MOUNT
  6
HIDDEN2
 62
         7
100
AcDbCircle
 10
143.4652911956
 20
228.7198603717
 30
0.0
 40
4.06
100
AcDbArc
 50
180.0
 51
360.0
  0
ARC
  5
AB
100
AcDbEntity
  8
MPG_WHEEL_MOUNT
  6
HIDDEN2
 62
         7
100
AcDbCircle
 10
143.4652911956
 20
228.7198603717
 30
0.0
 40
4.06
100
AcDbArc
 50
0.0
 51
180.0
  0
ARC
  5
AC
100
AcDbEntity
  8
MPG_WHEEL_MOUNT
  6
HIDDEN2
 62
         7
100
AcDbCircle
 10
143.4652911956
 20
264.2798603717
 30
0.0
 40
4.06
100
AcDbArc
 50
180.0
 51
360.0
  0
ARC
  5
AD
100
AcDbEntity
  8
MPG_WHEEL_MOUNT
  6
HIDDEN2
 62
         7
100
AcDbCircle
 10
143.4652911956
 20
264.2798603717
 30
0.0
 40
4.06
100
AcDbArc
 50
0.0
 51
180.0
  0
ARC
  5
AE
100
AcDbEntity
  8
MPG_WHEEL_MOUNT
  6
HIDDEN2
 62
         7
100
AcDbCircle
 10
199.3452911956
 20
264.2798603717
 30
0.0
 40
4.06
100
AcDbArc
 50
180.0
 51
360.0
  0
ARC
  5
AF
100
AcDbEntity
  8
MPG_WHEEL_MOUNT
  6
HIDDEN2
 62
         7
100
AcDbCircle
 10
199.3452911956
 20
264.2798603717
 30
0.0
 40
4.06
100
AcDbArc
 50
0.0
 51
180.0
  0
ARC
  5
B0
100
AcDbEntity
  8
MPG_WHEEL_MOUNT
  6
HIDDEN2
 62
         7
100
AcDbCircle
 10
199.3452911956
 20
228.7198603717
 30
0.0
 40
4.06
100
AcDbArc
 50
0.0
 51
180.0
  0
ARC
  5
B1
100
AcDbEntity
  8
MPG_WHEEL_MOUNT
  6
HIDDEN2
 62
         7
100
AcDbCircle
 10
199.3452911956
 20
228.7198603717
 30
0.0
 40
4.06
100
AcDbArc
 50
180.0
 51
360.0
  0
LINE
  5
B2
100
AcDbEntity
  8
MPG_WHEEL_MOUNT
  6
CONTINUOUS
 62
         7
100
AcDbLine
 10
156.4852911956
 20
243.0098603717
 30
0.0
 11
145.6852911956
 21
243.0098603717
 31
0.0
  0
CIRCLE
  5
B3
100
AcDbEntity
  8
MPG_WHEEL_MOUNT
  6
CONTINUOUS
 62
         7
100
AcDbCircle
 10
171.4052911956
 20
252.4998603736
 30
0.0
 40
1.5
  0
ENDBLK
  5
B4
100
AcDbEntity
  8
MPG_WHEEL_MOUNT
  6
CONTINUOUS
 62
         7
100
AcDbBlockEnd
  0
BLOCK
  5
D0
100
AcDbEntity
  8
0
 62
         1
 48
0.0
100
AcDbBlockBegin
  2
SE2
 70
         0
 10
0.0
 20
0.0
 30
0.0
  3
SE2
  1

  0
ENDBLK
  5
D1
100
AcDbEntity
  8
0
 62
         1
 48
0.0
100
AcDbBlockEnd
  0
BLOCK
  5
B7
100
AcDbEntity
  8
0
 62
         1
 48
0.0
100
AcDbBlockBegin
  2
SE3
 70
         0
 10
0.0
 20
0.0
 30
0.0
  3
SE3
  1

  0
LINE
  5
B8
100
AcDbEntity
  8
MPG_WHEEL_MOUNT
  6
HIDDEN2
 62
         7
100
AcDbLine
 10
270.532882419
 20
250.9998603736
 30
0.0
 11
273.532882419
 21
250.9998603736
 31
0.0
  0
LINE
  5
B9
100
AcDbEntity
  8
MPG_WHEEL_MOUNT
  6
HIDDEN2
 62
         7
100
AcDbLine
 10
270.532882419
 20
255.9998603736
 30
0.0
 11
273.532882419
 21
255.9998603736
 31
0.0
  0
LINE
  5
BA
100
AcDbEntity
  8
MPG_WHEEL_MOUNT
  6
HIDDEN2
 62
         7
100
AcDbLine
 10
273.532882419
 20
253.9998603736
 30
0.0
 11
270.532882419
 21
253.9998603736
 31
0.0
  0
LINE
  5
BB
100
AcDbEntity
  8
MPG_WHEEL_MOUNT
  6
HIDDEN2
 62
         7
100
AcDbLine
 10
273.532882419
 20
265.2798603717
 30
0.0
 11
265.032882419
 21
265.2798603717
 31
0.0
  0
LINE
  5
BC
100
AcDbEntity
  8
MPG_WHEEL_MOUNT
  6
CONTINUOUS
 62
         7
100
AcDbLine
 10
265.032882419
 20
224.6598603717
 30
0.0
 11
270.532882419
 21
224.6598603717
 31
0.0
  0
LINE
  5
BD
100
AcDbEntity
  8
MPG_WHEEL_MOUNT
  6
CONTINUOUS
 62
         7
100
AcDbLine
 10
270.532882419
 20
268.3398603717
 30
0.0
 11
265.032882419
 21
268.3398603717
 31
0.0
  0
LINE
  5
BE
100
AcDbEntity
  8
MPG_WHEEL_MOUNT
  6
HIDDEN2
 62
         7
100
AcDbLine
 10
265.032882419
 20
263.2798603717
 30
0.0
 11
273.532882419
 21
263.2798603717
 31
0.0
  0
LINE
  5
BF
100
AcDbEntity
  8
MPG_WHEEL_MOUNT
  6
HIDDEN2
 62
         7
100
AcDbLine
 10
273.532882419
 20
229.7198603717
 30
0.0
 11
265.032882419
 21
229.7198603717
 31
0.0
  0
LINE
  5
C0
100
AcDbEntity
  8
MPG_WHEEL_MOUNT
  6
HIDDEN2
 62
         7
100
AcDbLine
 10
265.032882419
 20
227.7198603717
 30
0.0
 11
273.532882419
 21
227.7198603717
 31
0.0
  0
LINE
  5
C1
100
AcDbEntity
  8
MPG_WHEEL_MOUNT
  6
CONTINUOUS
 62
         7
100
AcDbLine
 10
265.032882419
 20
260.2198603717
 30
0.0
 11
270.532882419
 21
260.2198603717
 31
0.0
  0
LINE
  5
C2
100
AcDbEntity
  8
MPG_WHEEL_MOUNT
  6
CONTINUOUS
 62
         7
100
AcDbLine
 10
270.532882419
 20
232.7798603717
 30
0.0
 11
265.032882419
 21
232.7798603717
 31
0.0
  0
LINE
  5
C3
100
AcDbEntity
  8
MPG_WHEEL_MOUNT
  6
CONTINUOUS
 62
         7
100
AcDbLine
 10
273.532882419
 20
223.9998603717
 30
0.0
 11
273.532882419
 21
268.9998603717
 31
0.0
  0
LINE
  5
C4
100
AcDbEntity
  8
MPG_WHEEL_MOUNT
  6
CONTINUOUS
 62
         7
100
AcDbLine
 10
270.532882419
 20
268.9998603717
 30
0.0
 11
273.532882419
 21
268.9998603717
 31
0.0
  0
LINE
  5
C5
100
AcDbEntity
  8
MPG_WHEEL_MOUNT
  6
CONTINUOUS
 62
         7
100
AcDbLine
 10
270.532882419
 20
223.9998603717
 30
0.0
 11
273.532882419
 21
223.9998603717
 31
0.0
  0
LINE
  5
C6
100
AcDbEntity
  8
MPG_WHEEL_MOUNT
  6
CONTINUOUS
 62
         7
100
AcDbLine
 10
265.032882419
 20
224.6598603717
 30
0.0
 11
265.032882419
 21
228.7198603717
 31
0.0
  0
LINE
  5
C7
100
AcDbEntity
  8
MPG_WHEEL_MOUNT
  6
HIDDEN2
 62
         7
100
AcDbLine
 10
270.532882419
 20
232.2098603717
 30
0.0
 11
273.532882419
 21
232.2098603717
 31
0.0
  0
LINE
  5
C8
100
AcDbEntity
  8
MPG_WHEEL_MOUNT
  6
HIDDEN2
 62
         7
100
AcDbLine
 10
270.532882419
 20
243.0098603717
 30
0.0
 11
273.532882419
 21
243.0098603717
 31
0.0
  0
LINE
  5
C9
100
AcDbEntity
  8
MPG_WHEEL_MOUNT
  6
CONTINUOUS
 62
         7
100
AcDbLine
 10
265.032882419
 20
260.2198603717
 30
0.0
 11
265.032882419
 21
264.2798603717
 31
0.0
  0
LINE
  5
CA
100
AcDbEntity
  8
MPG_WHEEL_MOUNT
  6
CONTINUOUS
 62
         7
100
AcDbLine
 10
270.532882419
 20
223.9998603717
 30
0.0
 11
270.532882419
 21
228.7198603717
 31
0.0
  0
LINE
  5
CB
100
AcDbEntity
  8
MPG_WHEEL_MOUNT
  6
CONTINUOUS
 62
         7
100
AcDbLine
 10
270.532882419
 20
228.7198603717
 30
0.0
 11
270.532882419
 21
264.2798603717
 31
0.0
  0
LINE
  5
CC
100
AcDbEntity
  8
MPG_WHEEL_MOUNT
  6
CONTINUOUS
 62
         7
100
AcDbLine
 10
265.032882419
 20
232.7798603717
 30
0.0
 11
265.032882419
 21
228.7198603717
 31
0.0
  0
LINE
  5
CD
100
AcDbEntity
  8
MPG_WHEEL_MOUNT
  6
CONTINUOUS
 62
         7
100
AcDbLine
 10
270.532882419
 20
264.2798603717
 30
0.0
 11
270.532882419
 21
268.9998603717
 31
0.0
  0
LINE
  5
CE
100
AcDbEntity
  8
MPG_WHEEL_MOUNT
  6
CONTINUOUS
 62
         7
100
AcDbLine
 10
265.032882419
 20
268.3398603717
 30
0.0
 11
265.032882419
 21
264.2798603717
 31
0.0
  0
ENDBLK
  5
CF
100
AcDbEntity
  8
MPG_WHEEL_MOUNT
  6
CONTINUOUS
 62
         7
100
AcDbBlockEnd
  0
BLOCK
  5
11E
100
AcDbEntity
  8
0
 62
         1
 48
0.0
100
AcDbBlockBegin
  2
SE4
 70
         0
 10
0.0
 20
0.0
 30
0.0
  3
SE4
  1

  0
ENDBLK
  5
11F
100
AcDbEntity
  8
0
 62
         1
 48
0.0
100
AcDbBlockEnd
  0
BLOCK
  5
D2
100
AcDbEntity
  8
0
 62
         1
 48
0.0
100
AcDbBlockBegin
  2
SE5
 70
         0
 10
0.0
 20
0.0
 30
0.0
  3
SE5
  1

  0
ELLIPSE
  5
D3
100
AcDbEntity
  8
MPG_WHEEL_MOUNT
  6
CONTINUOUS
 62
         7
100
AcDbEllipse
 10
259.5077624938
 20
192.3138168494
 30
0.0
 11
10.749999999999075
 21
18.61954618136593
 31
0.0
210
0.0
220
0.0
230
1.0
 40
0.5773502692
 41
3.2404195070188515
 42
5.0913395463915689
  0
LINE
  5
D4
100
AcDbEntity
  8
MPG_WHEEL_MOUNT
  6
CONTINUOUS
 62
         7
100
AcDbLine
 10
247.6648427942
 20
176.0865932906
 30
0.0
 11
245.5435224506
 21
177.311338162
 31
0.0
  0
LINE
  5
D5
100
AcDbEntity
  8
MPG_WHEEL_MOUNT
  6
CONTINUOUS
 62
         7
100
AcDbLine
 10
243.4422964252
 20
143.6097957955
 30
0.0
 11
251.079049662
 21
148.0188773325
 31
0.0
  0
LINE
  5
D6
100
AcDbEntity
  8
MPG_WHEEL_MOUNT
  6
CONTINUOUS
 62
         7
100
AcDbLine
 10
233.8321117309
 20
139.8079588528
 30
0.0
 11
236.8803454958
 21
138.0480602681
 31
0.0
  0
LINE
  5
D7
100
AcDbEntity
  8
MPG_WHEEL_MOUNT
  6
CONTINUOUS
 62
         7
100
AcDbLine
 10
240.4736550202
 20
174.3842488363
 30
0.0
 11
237.8921117309
 21
175.8747035493
 31
0.0
  0
LINE
  5
D8
100
AcDbEntity
  8
MPG_WHEEL_MOUNT
  6
CONTINUOUS
 62
         7
100
AcDbLine
 10
279.9867819529
 20
197.1971633074
 30
0.0
 11
277.4052386636
 21
198.6876180204
 31
0.0
  0
LINE
  5
D9
100
AcDbEntity
  8
MPG_WHEEL_MOUNT
  6
CONTINUOUS
 62
         7
100
AcDbLine
 10
273.472002537
 20
193.4358536579
 30
0.0
 11
275.5933228805
 21
192.2111087865
 31
0.0
  0
LINE
  5
DA
100
AcDbEntity
  8
MPG_WHEEL_MOUNT
  6
CONTINUOUS
 62
         7
100
AcDbLine
 10
233.8321117309
 20
168.8425772706
 30
0.0
 11
236.8803454958
 21
167.0826786859
 31
0.0
  0
ELLIPSE
  5
DB
100
AcDbEntity
  8
MPG_WHEEL_MOUNT
  6
CONTINUOUS
 62
         7
100
AcDbEllipse
 10
261.6290828374
 20
191.089071978
 30
0.0
 11
10.749999999999071
 21
18.619546181365905
 31
0.0
210
0.0
220
0.0
230
1.0
 40
0.5773502692
 41
2.7626420875827442
 42
5.091339546391568
  0
LINE
  5
DC
100
AcDbEntity
  8
MPG_WHEEL_MOUNT
  6
CONTINUOUS
 62
         7
100
AcDbLine
 10
273.472002537
 20
193.4358536579
 30
0.0
 11
282.1351794918
 21
198.4375412048
 31
0.0
  0
LINE
  5
DD
100
AcDbEntity
  8
MPG_WHEEL_MOUNT
  6
CONTINUOUS
 62
         7
100
AcDbLine
 10
275.5933228805
 20
192.2111087865
 30
0.0
 11
284.2564998353
 21
197.2127963334
 31
0.0
  0
LINE
  5
DE
100
AcDbEntity
  8
MPG_WHEEL_MOUNT
  6
CONTINUOUS
 62
         7
100
AcDbLine
 10
284.2564998353
 20
197.2127963334
 30
0.0
 11
284.2564998353
 21
160.4704501916
 31
0.0
  0
LINE
  5
DF
100
AcDbEntity
  8
MPG_WHEEL_MOUNT
  6
CONTINUOUS
 62
         7
100
AcDbLine
 10
282.1351794918
 20
198.4375412048
 30
0.0
 11
284.2564998353
 21
197.2127963334
 31
0.0
  0
LINE
  5
E0
100
AcDbEntity
  8
MPG_WHEEL_MOUNT
  6
CONTINUOUS
 62
         7
100
AcDbLine
 10
236.8803454958
 20
135.5673044733
 30
0.0
 11
239.0016658394
 21
134.342559602
 31
0.0
  0
LINE
  5
E1
100
AcDbEntity
  8
MPG_WHEEL_MOUNT
  6
CONTINUOUS
 62
         7
100
AcDbLine
 10
236.8803454958
 20
172.3096506151
 30
0.0
 11
239.0016658394
 21
171.0849057437
 31
0.0
  0
LINE
  5
E2
100
AcDbEntity
  8
MPG_WHEEL_MOUNT
  6
CONTINUOUS
 62
         7
100
AcDbLine
 10
239.0016658394
 20
171.0849057437
 30
0.0
 11
247.6648427942
 21
176.0865932906
 31
0.0
  0
LINE
  5
E3
100
AcDbEntity
  8
MPG_WHEEL_MOUNT
  6
CONTINUOUS
 62
         7
100
AcDbLine
 10
239.0016658394
 20
134.342559602
 30
0.0
 11
239.0016658394
 21
171.0849057437
 31
0.0
  0
LINE
  5
E4
100
AcDbEntity
  8
MPG_WHEEL_MOUNT
  6
CONTINUOUS
 62
         7
100
AcDbLine
 10
266.9182415606
 20
165.9818021129
 30
0.0
 11
266.9182415606
 21
159.6131287817
 31
0.0
  0
LINE
  5
E5
100
AcDbEntity
  8
MPG_WHEEL_MOUNT
  6
CONTINUOUS
 62
         7
100
AcDbLine
 10
266.9182415606
 20
159.6131287817
 30
0.0
 11
261.4028086674
 21
156.428792116
 31
0.0
  0
LINE
  5
E6
100
AcDbEntity
  8
MPG_WHEEL_MOUNT
  6
CONTINUOUS
 62
         7
100
AcDbLine
 10
257.9379854396
 20
160.797048824
 30
0.0
 11
257.9379854396
 21
154.4283754928
 31
0.0
  0
LINE
  5
E7
100
AcDbEntity
  8
MPG_WHEEL_MOUNT
  6
CONTINUOUS
 62
         7
100
AcDbLine
 10
257.9379854396
 20
154.4283754928
 30
0.0
 11
252.4225525463
 21
151.2440388272
 31
0.0
  0
ELLIPSE
  5
E8
100
AcDbEntity
  8
MPG_WHEEL_MOUNT
  6
CONTINUOUS
 62
         7
100
AcDbEllipse
 10
235.8621117309
 20
143.3240219922
 30
0.0
 11
2.0299999999998226
 21
3.5160631393649151
 31
0.0
210
0.0
220
0.0
230
1.0
 40
0.5773502692
 41
2.356194490192264
 42
3.1415926535898069
  0
LINE
  5
E9
100
AcDbEntity
  8
MPG_WHEEL_MOUNT
  6
CONTINUOUS
 62
         7
100
AcDbLine
 10
284.2564998353
 20
160.4704501916
 30
0.0
 11
239.0016658394
 21
134.342559602
 31
0.0
  0
LINE
  5
EA
100
AcDbEntity
  8
MPG_WHEEL_MOUNT
  6
CONTINUOUS
 62
         7
100
AcDbLine
 10
275.8984976817
 20
171.1665554018
 30
0.0
 11
275.8984976817
 21
164.7978820706
 31
0.0
  0
LINE
  5
EB
100
AcDbEntity
  8
MPG_WHEEL_MOUNT
  6
CONTINUOUS
 62
         7
100
AcDbLine
 10
275.8984976817
 20
164.7978820706
 30
0.0
 11
270.3830647884
 21
161.6135454049
 31
0.0
  0
LINE
  5
EC
100
AcDbEntity
  8
MPG_WHEEL_MOUNT
  6
CONTINUOUS
 62
         7
100
AcDbLine
 10
248.9577293185
 20
149.2436222039
 30
0.0
 11
243.4422964252
 21
146.0592855383
 31
0.0
  0
LINE
  5
ED
100
AcDbEntity
  8
MPG_WHEEL_MOUNT
  6
CONTINUOUS
 62
         7
100
AcDbLine
 10
248.9577293185
 20
155.6122955351
 30
0.0
 11
248.9577293185
 21
149.2436222039
 31
0.0
  0
LINE
  5
EE
100
AcDbEntity
  8
MPG_WHEEL_MOUNT
  6
CONTINUOUS
 62
         7
100
AcDbLine
 10
248.9577293185
 20
149.2436222039
 30
0.0
 11
251.079049662
 21
148.0188773325
 31
0.0
  0
LINE
  5
EF
100
AcDbEntity
  8
MPG_WHEEL_MOUNT
  6
CONTINUOUS
 62
         7
100
AcDbLine
 10
243.4422964252
 20
152.4279588695
 30
0.0
 11
243.4422964252
 21
143.6097957955
 31
0.0
  0
LINE
  5
F0
100
AcDbEntity
  8
MPG_WHEEL_MOUNT
  6
CONTINUOUS
 62
         7
100
AcDbLine
 10
251.079049662
 20
148.0188773325
 30
0.0
 11
251.079049662
 21
156.8370404065
 31
0.0
  0
LINE
  5
F1
100
AcDbEntity
  8
MPG_WHEEL_MOUNT
  6
CONTINUOUS
 62
         7
100
AcDbLine
 10
278.0198180253
 20
163.5731371992
 30
0.0
 11
278.0198180253
 21
172.3913002732
 31
0.0
  0
LINE
  5
F2
100
AcDbEntity
  8
MPG_WHEEL_MOUNT
  6
CONTINUOUS
 62
         7
100
AcDbLine
 10
270.3830647884
 20
167.9822187362
 30
0.0
 11
270.3830647884
 21
159.1640556622
 31
0.0
  0
LINE
  5
F3
100
AcDbEntity
  8
MPG_WHEEL_MOUNT
  6
CONTINUOUS
 62
         7
100
AcDbLine
 10
278.0198180253
 20
172.3913002732
 30
0.0
 11
270.3830647884
 21
167.9822187362
 31
0.0
  0
LINE
  5
F4
100
AcDbEntity
  8
MPG_WHEEL_MOUNT
  6
CONTINUOUS
 62
         7
100
AcDbLine
 10
275.8984976817
 20
164.7978820706
 30
0.0
 11
278.0198180253
 21
163.5731371992
 31
0.0
  0
LINE
  5
F5
100
AcDbEntity
  8
MPG_WHEEL_MOUNT
  6
CONTINUOUS
 62
         7
100
AcDbLine
 10
270.3830647884
 20
159.1640556622
 30
0.0
 11
278.0198180253
 21
163.5731371992
 31
0.0
  0
LINE
  5
F6
100
AcDbEntity
  8
MPG_WHEEL_MOUNT
  6
CONTINUOUS
 62
         7
100
AcDbLine
 10
269.0395619042
 20
158.3883839103
 30
0.0
 11
269.0395619042
 21
167.2065469843
 31
0.0
  0
LINE
  5
F7
100
AcDbEntity
  8
MPG_WHEEL_MOUNT
  6
CONTINUOUS
 62
         7
100
AcDbLine
 10
269.0395619042
 20
167.2065469843
 30
0.0
 11
261.4028086674
 21
162.7974654473
 31
0.0
  0
LINE
  5
F8
100
AcDbEntity
  8
MPG_WHEEL_MOUNT
  6
CONTINUOUS
 62
         7
100
AcDbLine
 10
266.9182415606
 20
159.6131287817
 30
0.0
 11
269.0395619042
 21
158.3883839103
 31
0.0
  0
LINE
  5
F9
100
AcDbEntity
  8
MPG_WHEEL_MOUNT
  6
CONTINUOUS
 62
         7
100
AcDbLine
 10
261.4028086674
 20
153.9793023733
 30
0.0
 11
269.0395619042
 21
158.3883839103
 31
0.0
  0
LINE
  5
FA
100
AcDbEntity
  8
MPG_WHEEL_MOUNT
  6
CONTINUOUS
 62
         7
100
AcDbLine
 10
261.4028086674
 20
162.7974654473
 30
0.0
 11
261.4028086674
 21
153.9793023733
 31
0.0
  0
LINE
  5
FB
100
AcDbEntity
  8
MPG_WHEEL_MOUNT
  6
CONTINUOUS
 62
         7
100
AcDbLine
 10
260.0593057831
 20
153.2036306214
 30
0.0
 11
260.0593057831
 21
162.0217936954
 31
0.0
  0
LINE
  5
FC
100
AcDbEntity
  8
MPG_WHEEL_MOUNT
  6
CONTINUOUS
 62
         7
100
AcDbLine
 10
252.4225525463
 20
148.7945490844
 30
0.0
 11
260.0593057831
 21
153.2036306214
 31
0.0
  0
LINE
  5
FD
100
AcDbEntity
  8
MPG_WHEEL_MOUNT
  6
CONTINUOUS
 62
         7
100
AcDbLine
 10
252.4225525463
 20
157.6127121584
 30
0.0
 11
252.4225525463
 21
148.7945490844
 31
0.0
  0
LINE
  5
FE
100
AcDbEntity
  8
MPG_WHEEL_MOUNT
  6
CONTINUOUS
 62
         7
100
AcDbLine
 10
260.0593057831
 20
162.0217936954
 30
0.0
 11
252.4225525463
 21
157.6127121584
 31
0.0
  0
LINE
  5
FF
100
AcDbEntity
  8
MPG_WHEEL_MOUNT
  6
CONTINUOUS
 62
         7
100
AcDbLine
 10
257.9379854396
 20
154.4283754928
 30
0.0
 11
260.0593057831
 21
153.2036306214
 31
0.0
  0
LINE
  5
100
100
AcDbEntity
  8
MPG_WHEEL_MOUNT
  6
CONTINUOUS
 62
         7
100
AcDbLine
 10
242.5796261522
 20
169.2967782315
 30
0.0
 11
241.872519371
 21
169.7050265219
 31
0.0
  0
LINE
  5
101
100
AcDbEntity
  8
MPG_WHEEL_MOUNT
  6
CONTINUOUS
 62
         7
100
AcDbLine
 10
242.5796261522
 20
140.2621598137
 30
0.0
 11
241.872519371
 21
140.6704081041
 31
0.0
  0
ELLIPSE
  5
102
100
AcDbEntity
  8
MPG_WHEEL_MOUNT
  6
CONTINUOUS
 62
         7
100
AcDbEllipse
 10
241.872519371
 20
168.888529941
 30
0.0
 11
-0.4999999999999577
 21
-0.8660254037844647
 31
0.0
210
0.0
220
0.0
230
1.0
 40
0.5773502692
 41
2.3561944901922454
 42
5.4977871437820731
  0
ELLIPSE
  5
103
100
AcDbEntity
  8
MPG_WHEEL_MOUNT
  6
CONTINUOUS
 62
         7
100
AcDbEllipse
 10
241.872519371
 20
168.888529941
 30
0.0
 11
0.499999999999953
 21
0.8660254037844647
 31
0.0
210
0.0
220
0.0
230
1.0
 40
0.5773502692
 41
2.3561944901923351
 42
5.4977871437820385
  0
LINE
  5
104
100
AcDbEntity
  8
MPG_WHEEL_MOUNT
  6
CONTINUOUS
 62
         7
100
AcDbLine
 10
282.0927530849
 20
192.1096927026
 30
0.0
 11
281.3856463037
 21
192.5179409931
 31
0.0
  0
ELLIPSE
  5
105
100
AcDbEntity
  8
MPG_WHEEL_MOUNT
  6
CONTINUOUS
 62
         7
100
AcDbEllipse
 10
241.872519371
 20
139.8539115232
 30
0.0
 11
-0.4999999999999581
 21
-0.8660254037844647
 31
0.0
210
0.0
220
0.0
230
1.0
 40
0.5773502692
 41
2.3561944901922454
 42
5.4977871437820385
  0
ELLIPSE
  5
106
100
AcDbEntity
  8
MPG_WHEEL_MOUNT
  6
CONTINUOUS
 62
         7
100
AcDbEllipse
 10
241.872519371
 20
139.8539115232
 30
0.0
 11
0.4999999999999567
 21
0.8660254037844635
 31
0.0
210
0.0
220
0.0
230
1.0
 40
0.5773502692
 41
2.3561944901922467
 42
5.4977871437820394
  0
ELLIPSE
  5
107
100
AcDbEntity
  8
MPG_WHEEL_MOUNT
  6
CONTINUOUS
 62
         7
100
AcDbEllipse
 10
281.3856463037
 20
191.7014444121
 30
0.0
 11
-0.499999999999953
 21
-0.8660254037844619
 31
0.0
210
0.0
220
0.0
230
1.0
 40
0.5773502692
 41
2.3561944901923177
 42
5.4977871437820811
  0
ELLIPSE
  5
108
100
AcDbEntity
  8
MPG_WHEEL_MOUNT
  6
CONTINUOUS
 62
         7
100
AcDbEllipse
 10
281.3856463037
 20
191.7014444121
 30
0.0
 11
0.4999999999999572
 21
0.866025403784465
 31
0.0
210
0.0
220
0.0
230
1.0
 40
0.5773502692
 41
2.3561944901922849
 42
5.4977871437821078
  0
LINE
  5
109
100
AcDbEntity
  8
MPG_WHEEL_MOUNT
  6
CONTINUOUS
 62
         7
100
AcDbLine
 10
282.0927530849
 20
163.0750742848
 30
0.0
 11
281.3856463037
 21
163.4833225753
 31
0.0
  0
ELLIPSE
  5
10A
100
AcDbEntity
  8
MPG_WHEEL_MOUNT
  6
CONTINUOUS
 62
         7
100
AcDbEllipse
 10
281.3856463037
 20
162.6668259943
 30
0.0
 11
-0.4999999999999418
 21
-0.8660254037844626
 31
0.0
210
0.0
220
0.0
230
1.0
 40
0.5773502692
 41
2.3561944901922418
 42
5.4977871437820403
  0
ELLIPSE
  5
10B
100
AcDbEntity
  8
MPG_WHEEL_MOUNT
  6
CONTINUOUS
 62
         7
100
AcDbEllipse
 10
281.3856463037
 20
162.6668259943
 30
0.0
 11
0.4999999999999467
 21
0.8660254037844569
 31
0.0
210
0.0
220
0.0
230
1.0
 40
0.5773502692
 41
2.3561944901922542
 42
5.497787143782042
  0
LINE
  5
10C
100
AcDbEntity
  8
MPG_WHEEL_MOUNT
  6
CONTINUOUS
 62
         7
100
AcDbLine
 10
232.9912581993
 20
141.6665339329
 30
0.0
 11
236.8803454958
 21
139.4211683353
 31
0.0
  0
ELLIPSE
  5
10D
100
AcDbEntity
  8
MPG_WHEEL_MOUNT
  6
CONTINUOUS
 62
         7
100
AcDbEllipse
 10
235.8621117309
 20
172.3586404099
 30
0.0
 11
2.0299999999998191
 21
3.5160631393649222
 31
0.0
210
0.0
220
0.0
230
1.0
 40
0.5773502692
 41
2.3561944901922534
 42
3.1415926535898042
  0
ELLIPSE
  5
10E
100
AcDbEntity
  8
MPG_WHEEL_MOUNT
  6
CONTINUOUS
 62
         7
100
AcDbEllipse
 10
235.8621117309
 20
143.3240219922
 30
0.0
 11
-2.0299999999998284
 21
-3.5160631393649195
 31
0.0
210
0.0
220
0.0
230
1.0
 40
0.5773502692
 41
3.5644192331607361
 42
5.4977871437820474
  0
LINE
  5
10F
100
AcDbEntity
  8
MPG_WHEEL_MOUNT
  6
CONTINUOUS
 62
         7
100
AcDbLine
 10
232.9912581993
 20
170.7011523507
 30
0.0
 11
236.8803454958
 21
168.4557867531
 31
0.0
  0
LINE
  5
110
100
AcDbEntity
  8
MPG_WHEEL_MOUNT
  6
CONTINUOUS
 62
         7
100
AcDbLine
 10
236.8803454958
 20
139.4211683353
 30
0.0
 11
236.8803454958
 21
168.4557867531
 31
0.0
  0
LINE
  5
111
100
AcDbEntity
  8
MPG_WHEEL_MOUNT
  6
CONTINUOUS
 62
         7
100
AcDbLine
 10
236.8803454958
 20
135.5673044733
 30
0.0
 11
236.8803454958
 21
139.4211683353
 31
0.0
  0
ELLIPSE
  5
112
100
AcDbEntity
  8
MPG_WHEEL_MOUNT
  6
CONTINUOUS
 62
         7
100
AcDbEllipse
 10
235.8621117309
 20
172.3586404099
 30
0.0
 11
-2.0299999999998275
 21
-3.5160631393649218
 31
0.0
210
0.0
220
0.0
230
1.0
 40
0.5773502692
 41
3.1415926535897931
 42
5.4977871437820598
  0
LINE
  5
113
100
AcDbEntity
  8
MPG_WHEEL_MOUNT
  6
CONTINUOUS
 62
         7
100
AcDbLine
 10
236.8803454958
 20
168.4557867531
 30
0.0
 11
236.8803454958
 21
172.3096506151
 31
0.0
  0
ELLIPSE
  5
114
100
AcDbEntity
  8
MPG_WHEEL_MOUNT
  6
CONTINUOUS
 62
         7
100
AcDbEllipse
 10
275.3752386636
 20
166.1369364633
 30
0.0
 11
2.0299999999998239
 21
3.516063139364924
 31
0.0
210
0.0
220
0.0
230
1.0
 40
0.5773502692
 41
2.3561944901922489
 42
2.8741143649976131
  0
ELLIPSE
  5
115
100
AcDbEntity
  8
MPG_WHEEL_MOUNT
  6
CONTINUOUS
 62
         7
100
AcDbEllipse
 10
275.3752386636
 20
195.1715548811
 30
0.0
 11
2.0299999999998275
 21
3.5160631393649302
 31
0.0
210
0.0
220
0.0
230
1.0
 40
0.5773502692
 41
2.3561944901922471
 42
2.9406188939548734
  0
ELLIPSE
  5
116
100
AcDbEntity
  8
MPG_WHEEL_MOUNT
  6
CONTINUOUS
 62
         7
100
AcDbEllipse
 10
275.3752386636
 20
195.1715548811
 30
0.0
 11
-2.029999999999816
 21
-3.5160631393649253
 31
0.0
210
0.0
220
0.0
230
1.0
 40
0.5773502692
 41
3.1415926535897931
 42
5.497787143782042
  0
LINE
  5
117
100
AcDbEntity
  8
MPG_WHEEL_MOUNT
  6
CONTINUOUS
 62
         7
100
AcDbLine
 10
273.3443151519
 20
193.0291329987
 30
0.0
 11
272.504385132
 21
193.5140668218
 31
0.0
  0
ELLIPSE
  5
118
100
AcDbEntity
  8
MPG_WHEEL_MOUNT
  6
CONTINUOUS
 62
         7
100
AcDbEllipse
 10
275.3752386636
 20
166.1369364633
 30
0.0
 11
-2.0299999999998288
 21
-3.5160631393649293
 31
0.0
210
0.0
220
0.0
230
1.0
 40
0.5773502692
 41
3.743700241921827
 42
5.4977871437820403
  0
LINE
  5
119
100
AcDbEntity
  8
MPG_WHEEL_MOUNT
  6
CONTINUOUS
 62
         7
100
AcDbLine
 10
272.504385132
 20
164.479448404
 30
0.0
 11
273.9256697622
 21
163.6588693402
 31
0.0
  0
LINE
  5
11A
100
AcDbEntity
  8
MPG_WHEEL_MOUNT
  6
CONTINUOUS
 62
         7
100
AcDbLine
 10
236.8803454958
 20
172.3096506151
 30
0.0
 11
245.5435224506
 21
177.311338162
 31
0.0
  0
LINE
  5
11B
100
AcDbEntity
  8
MPG_WHEEL_MOUNT
  6
CONTINUOUS
 62
         7
100
AcDbLine
 10
251.079049662
 20
156.8370404065
 30
0.0
 11
243.4422964252
 21
152.4279588695
 31
0.0
  0
ELLIPSE
  5
11C
100
AcDbEntity
  8
MPG_WHEEL_MOUNT
  6
CONTINUOUS
 62
         7
100
AcDbEllipse
 10
261.6290828374
 20
170.6766574548
 30
0.0
 11
-0.7499999999999323
 21
-1.299038105676694
 31
0.0
210
0.0
220
0.0
230
1.0
 40
0.5773502692
 41
0.0
 42
6.2831853071795862
  0
ENDBLK
  5
11D
100
AcDbEntity
  8
MPG_WHEEL_MOUNT
  6
CONTINUOUS
 62
         7
100
AcDbBlockEnd
  0
BLOCK
  5
120
100
AcDbEntity
  8
DEFAULT
 62
         1
 48
0.0
100
AcDbBlockBegin
  2
SE6
 70
         0
 10
0.0
 20
0.0
 30
0.0
  3
SE6
  1

  0
HATCH
  5
121
100
AcDbEntity
  8
DEFAULT
  6
CONTINUOUS
 62
       136
100
AcDbHatch
 10
0.0
 20
0.0
 30
0.0
210
0.0
220
0.0
230
1.0
  2
SOLID
 70
         1
 71
         1
 91
        1
 92
        1
 93
        3
 72
         1
 10
105.57286683330307
 20
265.49986026366298
 11
106.15620018464197
 21
268.9998603716964
 72
         1
 10
106.15620018464197
 20
268.9998603716964
 11
106.73953353598088
 21
265.49986026366298
 72
         1
 10
106.73953353598088
 20
265.49986026366298
 11
105.57286683330307
 21
265.49986026366298
 97
        0
 75
         0
 76
         1
 98
        1
 10
0.0
 20
0.0
  0
HATCH
  5
122
100
AcDbEntity
  8
DEFAULT
  6
CONTINUOUS
 62
       136
100
AcDbHatch
 10
0.0
 20
0.0
 30
0.0
210
0.0
220
0.0
230
1.0
  2
SOLID
 70
         1
 71
         1
 91
        1
 92
        1
 93
        3
 72
         1
 10
105.57286683330307
 20
227.49986047972982
 11
106.15620018464197
 21
223.9998603716964
 72
         1
 10
106.15620018464197
 20
223.9998603716964
 11
106.73953353598088
 21
227.49986047972982
 72
         1
 10
106.73953353598088
 20
227.49986047972982
 11
105.57286683330307
 21
227.49986047972982
 97
        0
 75
         0
 76
         1
 98
        1
 10
0.0
 20
0.0
  0
LINE
  5
123
100
AcDbEntity
  8
DEFAULT
  6
CONTINUOUS
 62
       136
100
AcDbLine
 10
139.4052915416
 20
268.9998603717
 30
0.0
 11
104.4062001306
 21
268.9998603717
 31
0.0
  0
LINE
  5
124
100
AcDbEntity
  8
DEFAULT
  6
CONTINUOUS
 62
       136
100
AcDbLine
 10
139.4052911956
 20
223.9998603717
 30
0.0
 11
104.4062001306
 21
223.9998603717
 31
0.0
  0
LINE
  5
125
100
AcDbEntity
  8
DEFAULT
  6
CONTINUOUS
 62
       136
100
AcDbLine
 10
106.1562001846
 20
268.9998603717
 30
0.0
 11
106.1562001846
 21
223.9998585836
 31
0.0
  0
TEXT
  5
126
100
AcDbEntity
  8
DEFAULT
  6
CONTINUOUS
 62
       136
100
AcDbText
 10
105.2812001846
 20
244.4714503867
 30
0.0
 40
3.5
  1
45
 50
90.0
  7
seiso_ttf
 11
101.7812001846
 21
244.4714503867
 31
0.0
100
AcDbText
 73
         3
  0
ENDBLK
  5
127
100
AcDbEntity
  8
DEFAULT
  6
CONTINUOUS
 62
       136
100
AcDbBlockEnd
  0
BLOCK
  5
128
100
AcDbEntity
  8
DEFAULT
 62
         1
 48
0.0
100
AcDbBlockBegin
  2
SE7
 70
         0
 10
0.0
 20
0.0
 30
0.0
  3
SE7
  1

  0
HATCH
  5
129
100
AcDbEntity
  8
DEFAULT
  6
CONTINUOUS
 62
       136
100
AcDbHatch
 10
0.0
 20
0.0
 30
0.0
210
0.0
220
0.0
230
1.0
  2
SOLID
 70
         1
 71
         1
 91
        1
 92
        1
 93
        3
 72
         1
 10
142.90529130366542
 20
208.91313835474099
 11
139.405291195632
 21
209.49647170607989
 72
         1
 10
139.405291195632
 20
209.49647170607989
 11
142.90529130366542
 21
210.07980505741878
 72
         1
 10
142.90529130366542
 20
210.07980505741878
 11
142.90529130366542
 21
208.91313835474099
 97
        0
 75
         0
 76
         1
 98
        1
 10
0.0
 20
0.0
  0
HATCH
  5
12A
100
AcDbEntity
  8
DEFAULT
  6
CONTINUOUS
 62
       136
100
AcDbHatch
 10
0.0
 20
0.0
 30
0.0
210
0.0
220
0.0
230
1.0
  2
SOLID
 70
         1
 71
         1
 91
        1
 92
        1
 93
        3
 72
         1
 10
199.90529108759858
 20
208.91313835474099
 11
203.405291195632
 21
209.49647170607989
 72
         1
 10
203.405291195632
 20
209.49647170607989
 11
199.90529108759858
 21
210.07980505741878
 72
         1
 10
199.90529108759858
 20
210.07980505741878
 11
199.90529108759858
 21
208.91313835474099
 97
        0
 75
         0
 76
         1
 98
        1
 10
0.0
 20
0.0
  0
LINE
  5
12B
100
AcDbEntity
  8
DEFAULT
  6
CONTINUOUS
 62
       136
100
AcDbLine
 10
139.4052911956
 20
223.9998603717
 30
0.0
 11
139.4052911956
 21
207.7464716521
 31
0.0
  0
LINE
  5
12C
100
AcDbEntity
  8
DEFAULT
  6
CONTINUOUS
 62
       136
100
AcDbLine
 10
203.4052911956
 20
223.9998603717
 30
0.0
 11
203.4052911956
 21
207.7464716521
 31
0.0
  0
LINE
  5
12D
100
AcDbEntity
  8
DEFAULT
  6
CONTINUOUS
 62
       136
100
AcDbLine
 10
139.4052911956
 20
209.4964717061
 30
0.0
 11
203.4052942355
 21
209.4964717061
 31
0.0
  0
TEXT
  5
12E
100
AcDbEntity
  8
DEFAULT
  6
CONTINUOUS
 62
       136
100
AcDbText
 10
169.2973381701
 20
210.3714717061
 30
0.0
 40
3.5
  1
64
  7
seiso_ttf
 11
169.2973381701
 21
213.8714717061
 31
0.0
100
AcDbText
 73
         3
  0
ENDBLK
  5
12F
100
AcDbEntity
  8
DEFAULT
  6
CONTINUOUS
 62
       136
100
AcDbBlockEnd
  0
BLOCK
  5
130
100
AcDbEntity
  8
DEFAULT
 62
         1
 48
0.0
100
AcDbBlockBegin
  2
SE8
 70
         0
 10
0.0
 20
0.0
 30
0.0
  3
SE8
  1

  0
TEXT
  5
131
100
AcDbEntity
  8
0
  6
CONTINUOUS
 62
       136
100
AcDbText
 10
464.874
 20
50.7035
 30
0.0
 40
3.048
  1
Christian
  7
seiso_ttf
 11
464.874
 21
53.7515
 31
0.0
100
AcDbText
 73
         3
  0
ENDBLK
  5
132
100
AcDbEntity
  8
0
  6
CONTINUOUS
 62
       136
100
AcDbBlockEnd
  0
BLOCK
  5
133
100
AcDbEntity
  8
DEFAULT
 62
         1
 48
0.0
100
AcDbBlockBegin
  2
SE9
 70
         0
 10
0.0
 20
0.0
 30
0.0
  3
SE9
  1

  0
TEXT
  5
134
100
AcDbEntity
  8
0
  6
CONTINUOUS
 62
       136
100
AcDbText
 10
483.924
 20
50.7035
 30
0.0
 40
3.048
  1
07/24/24
  7
seiso_ttf
 11
483.924
 21
53.7515
 31
0.0
100
AcDbText
 73
         3
  0
ENDBLK
  5
135
100
AcDbEntity
  8
0
  6
CONTINUOUS
 62
       136
100
AcDbBlockEnd
  0
BLOCK
  5
136
100
AcDbEntity
  8
DEFAULT
 62
         1
 48
0.0
100
AcDbBlockBegin
  2
SE10
 70
         0
 10
0.0
 20
0.0
 30
0.0
  3
SE10
  1

  0
TEXT
  5
137
100
AcDbEntity
  8
0
  6
CONTINUOUS
 62
       136
100
AcDbText
 10
506.149
 20
18.001
 30
0.0
 40
3.048
  1
FILE NAME: mpg_wheel_mount.dft
  7
seiso_ttf
 11
506.149
 21
21.049
 31
0.0
100
AcDbText
 73
         3
  0
ENDBLK
  5
138
100
AcDbEntity
  8
0
  6
CONTINUOUS
 62
       136
100
AcDbBlockEnd
  0
BLOCK
  5
139
100
AcDbEntity
  8
DEFAULT
 62
         1
 48
0.0
100
AcDbBlockBegin
  2
SE11
 70
         0
 10
0.0
 20
0.0
 30
0.0
  3
SE11
  1

  0
TEXT
  5
13A
100
AcDbEntity
  8
0
  6
CONTINUOUS
 62
       136
100
AcDbText
 10
553.774
 20
11.651
 30
0.0
 40
3.048
  1
SHEET 
  7
seiso_ttf
 11
553.774
 21
14.699
 31
0.0
100
AcDbText
 73
         3
  0
TEXT
  5
13B
100
AcDbEntity
  8
0
  6
CONTINUOUS
 62
       136
100
AcDbText
 10
563.68
 20
11.651
 30
0.0
 40
3.048
  1
%{
  7
seiso_ttf
 11
563.68
 21
14.699
 31
0.0
100
AcDbText
 73
         3
  0
TEXT
  5
13C
100
AcDbEntity
  8
0
  6
CONTINUOUS
 62
       136
100
AcDbText
 10
568.3212727273
 20
11.651
 30
0.0
 40
3.048
  1
pset=6pid=29} OF 1
  7
seiso_ttf
 11
568.3212727273
 21
14.699
 31
0.0
100
AcDbText
 73
         3
  0
ENDBLK
  5
13D
100
AcDbEntity
  8
0
  6
CONTINUOUS
 62
       136
100
AcDbBlockEnd
  0
ENDSEC
  0
SECTION
  2
ENTITIES
  0
INSERT
  5
33
102
{ACAD_XDICTIONARY
360
34
102
}
100
AcDbEntity
  8
0
 62
         0
 48
0.0
100
AcDbBlockReference
  2
SE1
 10
0.0
 20
0.0
 30
0.0
  0
INSERT
  5
37
100
AcDbEntity
  8
0
 62
         0
 48
0.0
100
AcDbBlockReference
  2
SE0
 10
0.0
 20
0.0
 30
0.0
  0
INSERT
  5
3A
102
{ACAD_XDICTIONARY
360
3B
102
}
100
AcDbEntity
  8
0
 62
         0
 48
0.0
100
AcDbBlockReference
  2
SE3
 10
0.0
 20
0.0
 30
0.0
  0
INSERT
  5
3E
100
AcDbEntity
  8
0
 62
         0
 48
0.0
100
AcDbBlockReference
  2
SE2
 10
0.0
 20
0.0
 30
0.0
  0
INSERT
  5
41
102
{ACAD_XDICTIONARY
360
42
102
}
100
AcDbEntity
  8
0
 62
         0
 48
0.0
100
AcDbBlockReference
  2
SE5
 10
0.0
 20
0.0
 30
0.0
  0
INSERT
  5
45
100
AcDbEntity
  8
0
 62
         0
 48
0.0
100
AcDbBlockReference
  2
SE4
 10
0.0
 20
0.0
 30
0.0
  0
INSERT
  5
4A
100
AcDbEntity
  8
DEFAULT
 62
         0
 48
0.0
100
AcDbBlockReference
  2
SE6
 10
0.0
 20
0.0
 30
0.0
  0
INSERT
  5
4E
100
AcDbEntity
  8
DEFAULT
 62
         0
 48
0.0
100
AcDbBlockReference
  2
SE7
 10
0.0
 20
0.0
 30
0.0
  0
LINE
  5
4F
100
AcDbEntity
  8
DEFAULT
  6
CONTINUOUS
 62
         7
100
AcDbLine
 10
10.0
 20
10.0
 30
0.0
 11
584.0
 21
10.0
 31
0.0
  0
LINE
  5
50
100
AcDbEntity
  8
DEFAULT
  6
CONTINUOUS
 62
         7
100
AcDbLine
 10
584.0
 20
10.0
 30
0.0
 11
584.0
 21
410.0
 31
0.0
  0
LINE
  5
51
100
AcDbEntity
  8
DEFAULT
  6
CONTINUOUS
 62
         7
100
AcDbLine
 10
584.0
 20
410.0
 30
0.0
 11
10.0
 21
410.0
 31
0.0
  0
LINE
  5
52
100
AcDbEntity
  8
DEFAULT
  6
CONTINUOUS
 62
         7
100
AcDbLine
 10
10.0
 20
410.0
 30
0.0
 11
10.0
 21
10.0
 31
0.0
  0
LINE
  5
53
100
AcDbEntity
  8
DEFAULT
  6
CONTINUOUS
 62
         7
100
AcDbLine
 10
441.125
 20
10.0
 30
0.0
 11
441.125
 21
60.8
 31
0.0
  0
LINE
  5
54
100
AcDbEntity
  8
DEFAULT
  6
CONTINUOUS
 62
         7
100
AcDbLine
 10
463.35
 20
32.225
 30
0.0
 11
463.35
 21
60.8
 31
0.0
  0
LINE
  5
55
100
AcDbEntity
  8
DEFAULT
  6
CONTINUOUS
 62
         7
100
AcDbLine
 10
482.4
 20
32.225
 30
0.0
 11
482.4
 21
60.8
 31
0.0
  0
LINE
  5
56
100
AcDbEntity
  8
DEFAULT
  6
CONTINUOUS
 62
         7
100
AcDbLine
 10
504.625
 20
10.0
 30
0.0
 11
504.625
 21
60.8
 31
0.0
  0
LINE
  5
57
100
AcDbEntity
  8
DEFAULT
  6
CONTINUOUS
 62
         7
100
AcDbLine
 10
514.15
 20
22.7
 30
0.0
 11
514.15
 21
32.098
 31
0.0
  0
LINE
  5
58
100
AcDbEntity
  8
DEFAULT
  6
CONTINUOUS
 62
         7
100
AcDbLine
 10
526.85
 20
10.0
 30
0.0
 11
526.85
 21
16.35
 31
0.0
  0
LINE
  5
59
100
AcDbEntity
  8
DEFAULT
  6
CONTINUOUS
 62
         7
100
AcDbLine
 10
552.25
 20
10.0
 30
0.0
 11
552.25
 21
16.35
 31
0.0
  0
LINE
  5
5A
100
AcDbEntity
  8
DEFAULT
  6
CONTINUOUS
 62
         7
100
AcDbLine
 10
574.348
 20
22.7
 30
0.0
 11
574.348
 21
32.098
 31
0.0
  0
LINE
  5
5B
100
AcDbEntity
  8
DEFAULT
  6
CONTINUOUS
 62
         7
100
AcDbLine
 10
441.125
 20
60.8
 30
0.0
 11
584.0
 21
60.8
 31
0.0
  0
LINE
  5
5C
100
AcDbEntity
  8
DEFAULT
  6
CONTINUOUS
 62
         7
100
AcDbLine
 10
441.125
 20
55.085
 30
0.0
 11
504.625
 21
55.085
 31
0.0
  0
LINE
  5
5D
100
AcDbEntity
  8
DEFAULT
  6
CONTINUOUS
 62
         7
100
AcDbLine
 10
441.125
 20
49.37
 30
0.0
 11
504.625
 21
49.37
 31
0.0
  0
LINE
  5
5E
100
AcDbEntity
  8
DEFAULT
  6
CONTINUOUS
 62
         7
100
AcDbLine
 10
504.625
 20
45.052
 30
0.0
 11
584.0
 21
45.052
 31
0.0
  0
LINE
  5
5F
100
AcDbEntity
  8
DEFAULT
  6
CONTINUOUS
 62
         7
100
AcDbLine
 10
441.125
 20
43.655
 30
0.0
 11
504.625
 21
43.655
 31
0.0
  0
LINE
  5
60
100
AcDbEntity
  8
DEFAULT
  6
CONTINUOUS
 62
         7
100
AcDbLine
 10
441.125
 20
37.94
 30
0.0
 11
504.625
 21
37.94
 31
0.0
  0
LINE
  5
61
100
AcDbEntity
  8
DEFAULT
  6
CONTINUOUS
 62
         7
100
AcDbLine
 10
441.125
 20
32.225
 30
0.0
 11
584.0
 21
32.225
 31
0.0
  0
LINE
  5
62
100
AcDbEntity
  8
DEFAULT
  6
CONTINUOUS
 62
         7
100
AcDbLine
 10
504.625
 20
22.7
 30
0.0
 11
584.0
 21
22.7
 31
0.0
  0
LINE
  5
63
100
AcDbEntity
  8
DEFAULT
  6
CONTINUOUS
 62
         7
100
AcDbLine
 10
504.625
 20
16.35
 30
0.0
 11
584.0
 21
16.35
 31
0.0
  0
TEXT
  5
64
100
AcDbEntity
  8
DEFAULT
  6
CONTINUOUS
 62
         7
100
AcDbText
 10
442.649
 20
50.7727727273
 30
0.0
 40
3.048
  1
DRAWN
  7
seiso_ttf
 11
442.649
 21
53.8207727273
 31
0.0
100
AcDbText
 73
         3
  0
TEXT
  5
65
100
AcDbEntity
  8
DEFAULT
  6
CONTINUOUS
 62
         7
100
AcDbText
 10
442.649
 20
45.0577727273
 30
0.0
 40
3.048
  1
CHECKED
  7
seiso_ttf
 11
442.649
 21
48.1057727273
 31
0.0
100
AcDbText
 73
         3
  0
TEXT
  5
66
100
AcDbEntity
  8
DEFAULT
  6
CONTINUOUS
 62
         7
100
AcDbText
 10
442.649
 20
39.3427727273
 30
0.0
 40
3.048
  1
ENG APPR
  7
seiso_ttf
 11
442.649
 21
42.3907727273
 31
0.0
100
AcDbText
 73
         3
  0
TEXT
  5
67
100
AcDbEntity
  8
DEFAULT
  6
CONTINUOUS
 62
         7
100
AcDbText
 10
442.649
 20
33.6277727273
 30
0.0
 40
3.048
  1
MGR APPR
  7
seiso_ttf
 11
442.649
 21
36.6757727273
 31
0.0
100
AcDbText
 73
         3
  0
TEXT
  5
68
100
AcDbEntity
  8
DEFAULT
  6
CONTINUOUS
 62
         7
100
AcDbText
 10
451.8853636364
 20
27.1392272727
 30
0.0
 40
3.048
  1
UNLESS OTHERWISE SPECIFIED
  7
seiso_ttf
 11
451.8853636364
 21
30.1872272727
 31
0.0
100
AcDbText
 73
         3
  0
TEXT
  5
69
100
AcDbEntity
  8
DEFAULT
  6
CONTINUOUS
 62
         7
100
AcDbText
 10
449.9110909091
 20
22.1515909091
 30
0.0
 40
3.048
  1
DIMENSIONS ARE IN MILLIMETERS
  7
seiso_ttf
 11
449.9110909091
 21
25.1995909091
 31
0.0
100
AcDbText
 73
         3
  0
TEXT
  5
6A
100
AcDbEntity
  8
DEFAULT
  6
CONTINUOUS
 62
         7
100
AcDbText
 10
463.4192727273
 20
17.1639545455
 30
0.0
 40
3.048
  1
ANGLES X.X
  7
seiso_ttf
 11
463.4192727273
 21
20.2119545455
 31
0.0
100
AcDbText
 73
         3
  0
TEXT
  5
6B
100
AcDbEntity
  8
DEFAULT
  6
CONTINUOUS
 62
         7
100
AcDbText
 10
455.6953636364
 20
12.1763181818
 30
0.0
 40
3.048
  1
2 PL X.XX 3 PL X.XXX
  7
seiso_ttf
 11
455.6953636364
 21
15.2243181818
 31
0.0
100
AcDbText
 73
         3
  0
TEXT
  5
6C
100
AcDbEntity
  8
DEFAULT
  6
CONTINUOUS
 62
         7
100
AcDbText
 10
469.0996363636
 20
56.4877727273
 30
0.0
 40
3.048
  1
NAME
  7
seiso_ttf
 11
469.0996363636
 21
59.5357727273
 31
0.0
100
AcDbText
 73
         3
  0
INSERT
  5
6E
100
AcDbEntity
  8
DEFAULT
 62
         0
 48
0.0
100
AcDbBlockReference
  2
SE8
 10
0.0
 20
0.0
 30
0.0
  0
TEXT
  5
6F
100
AcDbEntity
  8
DEFAULT
  6
CONTINUOUS
 62
         7
100
AcDbText
 10
490.0835
 20
56.4877727273
 30
0.0
 40
3.048
  1
DATE
  7
seiso_ttf
 11
490.0835
 21
59.5357727273
 31
0.0
100
AcDbText
 73
         3
  0
INSERT
  5
71
100
AcDbEntity
  8
DEFAULT
 62
         0
 48
0.0
100
AcDbBlockReference
  2
SE9
 10
0.0
 20
0.0
 30
0.0
  0
TEXT
  5
73
100
AcDbEntity
  8
DEFAULT
  6
CONTINUOUS
 62
         7
100
AcDbText
 10
528.7261363636
 20
51.9215454545
 30
0.0
 40
6.096
  1
SOLID EDGE
  7
seiso_ttfBI
 11
528.7261363636
 21
58.0175454545
 31
0.0
100
AcDbText
 73
         3
  0
TEXT
  5
74
100
AcDbEntity
  8
DEFAULT
  6
CONTINUOUS
 62
         7
100
AcDbText
 10
530.2155
 20
46.9708495455
 30
0.0
 40
3.048
  1
EDS-PLM SOLUTIONS
  7
seiso_ttf
 11
530.2155
 21
50.0188495455
 31
0.0
100
AcDbText
 73
         3
  0
TEXT
  5
75
100
AcDbEntity
  8
DEFAULT
  6
CONTINUOUS
 62
         7
100
AcDbText
 10
505.895
 20
41.7615454545
 30
0.0
 40
2.54
  1
TITLE
  7
seiso_ttf
 11
505.895
 21
44.3015454545
 31
0.0
100
AcDbText
 73
         3
  0
TEXT
  5
76
100
AcDbEntity
  8
DEFAULT
  6
CONTINUOUS
 62
         7
100
AcDbText
 10
506.8475
 20
28.9345454545
 30
0.0
 40
2.54
  1
SIZE
  7
seiso_ttf
 11
506.8475
 21
31.4745454545
 31
0.0
100
AcDbText
 73
         3
  0
TEXT
  5
78
100
AcDbEntity
  8
DEFAULT
  6
CONTINUOUS
 62
         7
100
AcDbText
 10
507.6210454545
 20
24.7377727273
 30
0.0
 40
3.048
  1
A2
  7
seiso_ttfB
 11
507.6210454545
 21
27.7857727273
 31
0.0
100
AcDbText
 73
         3
  0
TEXT
  5
79
100
AcDbEntity
  8
DEFAULT
  6
CONTINUOUS
 62
         7
100
AcDbText
 10
515.42
 20
28.9345454545
 30
0.0
 40
2.54
  1
DWG NO
  7
seiso_ttf
 11
515.42
 21
31.4745454545
 31
0.0
100
AcDbText
 73
         3
  0
TEXT
  5
7A
100
AcDbEntity
  8
DEFAULT
  6
CONTINUOUS
 62
         7
100
AcDbText
 10
577.0092272727
 20
28.9345454545
 30
0.0
 40
2.54
  1
REV
  7
seiso_ttf
 11
577.0092272727
 21
31.4745454545
 31
0.0
100
AcDbText
 73
         3
  0
INSERT
  5
7C
100
AcDbEntity
  8
DEFAULT
 62
         0
 48
0.0
100
AcDbBlockReference
  2
SE10
 10
0.0
 20
0.0
 30
0.0
  0
TEXT
  5
7D
100
AcDbEntity
  8
DEFAULT
  6
CONTINUOUS
 62
         7
100
AcDbText
 10
506.149
 20
11.7202727273
 30
0.0
 40
3.048
  1
SCALE:
  7
seiso_ttf
 11
506.149
 21
14.7682727273
 31
0.0
100
AcDbText
 73
         3
  0
TEXT
  5
7E
100
AcDbEntity
  8
DEFAULT
  6
CONTINUOUS
 62
         7
100
AcDbText
 10
528.374
 20
11.7202727273
 30
0.0
 40
3.048
  1
WEIGHT:
  7
seiso_ttf
 11
528.374
 21
14.7682727273
 31
0.0
100
AcDbText
 73
         3
  0
INSERT
  5
80
100
AcDbEntity
  8
DEFAULT
 62
         0
 48
0.0
100
AcDbBlockReference
  2
SE11
 10
0.0
 20
0.0
 30
0.0
  0
LINE
  5
81
100
AcDbEntity
  8
DEFAULT
  6
CONTINUOUS
 62
         7
100
AcDbLine
 10
457.0
 20
410.0
 30
0.0
 11
457.0
 21
390.95
 31
0.0
  0
LINE
  5
82
100
AcDbEntity
  8
DEFAULT
  6
CONTINUOUS
 62
         7
100
AcDbLine
 10
466.652
 20
403.65
 30
0.0
 11
466.652
 21
390.95
 31
0.0
  0
LINE
  5
83
100
AcDbEntity
  8
DEFAULT
  6
CONTINUOUS
 62
         7
100
AcDbLine
 10
536.248
 20
403.65
 30
0.0
 11
536.248
 21
390.95
 31
0.0
  0
LINE
  5
84
100
AcDbEntity
  8
DEFAULT
  6
CONTINUOUS
 62
         7
100
AcDbLine
 10
558.6
 20
403.65
 30
0.0
 11
558.6
 21
390.95
 31
0.0
  0
LINE
  5
85
100
AcDbEntity
  8
DEFAULT
  6
CONTINUOUS
 62
         7
100
AcDbLine
 10
457.0
 20
403.65
 30
0.0
 11
584.0
 21
403.65
 31
0.0
  0
LINE
  5
86
100
AcDbEntity
  8
DEFAULT
  6
CONTINUOUS
 62
         7
100
AcDbLine
 10
457.0
 20
397.3
 30
0.0
 11
584.0
 21
397.3
 31
0.0
  0
TEXT
  5
87
100
AcDbEntity
  8
DEFAULT
  6
CONTINUOUS
 62
         7
100
AcDbText
 10
507.8923636364
 20
405.3702727273
 30
0.0
 40
3.048
  1
REVISION HISTORY
  7
seiso_ttf
 11
507.8923636364
 21
408.4182727273
 31
0.0
100
AcDbText
 73
         3
  0
TEXT
  5
88
100
AcDbEntity
  8
DEFAULT
  6
CONTINUOUS
 62
         7
100
AcDbText
 10
459.2282727273
 20
399.0202727273
 30
0.0
 40
3.048
  1
REV
  7
seiso_ttf
 11
459.2282727273
 21
402.0682727273
 31
0.0
100
AcDbText
 73
         3
  0
TEXT
  5
89
100
AcDbEntity
  8
DEFAULT
  6
CONTINUOUS
 62
         7
100
AcDbText
 10
492.687
 20
399.0202727273
 30
0.0
 40
3.048
  1
DESCRIPTION
  7
seiso_ttf
 11
492.687
 21
402.0682727273
 31
0.0
100
AcDbText
 73
         3
  0
TEXT
  5
8A
100
AcDbEntity
  8
DEFAULT
  6
CONTINUOUS
 62
         7
100
AcDbText
 10
543.995
 20
399.0202727273
 30
0.0
 40
3.048
  1
DATE
  7
seiso_ttf
 11
543.995
 21
402.0682727273
 31
0.0
100
AcDbText
 73
         3
  0
TEXT
  5
8B
100
AcDbEntity
  8
DEFAULT
  6
CONTINUOUS
 62
         7
100
AcDbText
 10
564.3380909091
 20
399.0202727273
 30
0.0
 40
3.048
  1
APPROVED
  7
seiso_ttf
 11
564.3380909091
 21
402.0682727273
 31
0.0
100
AcDbText
 73
         3
  0
ENDSEC
  0
SECTION
  2
OBJECTS
  0
DICTIONARY
  5
19
100
AcDbDictionary
  3
ACAD_GROUP
350
1A
  3
ACAD_MLINESTYLE
350
1B
  0
DICTIONARY
  5
1A
102
{ACAD_REACTORS
330
19
102
}
100
AcDbDictionary
  0
DICTIONARY
  5
1B
102
{ACAD_REACTORS
330
19
102
}
100
AcDbDictionary
  3
STANDARD
350
1C
  0
MLINESTYLE
  5
1C
102
{ACAD_REACTORS
330
1B
102
}
100
AcDbMlineStyle
  2
Standard
 70
         0
  3

 62
         0
 51
90.0
 52
90.0
 71
         2
 49
0.5
 62
       256
  6
ByLayer
 49
-0.5
 62
       256
  6
ByLayer
  0
DICTIONARY
  5
34
100
AcDbDictionary
  3
ACAD_FILTER
350
35
  0
DICTIONARY
  5
35
100
AcDbDictionary
  3
SPATIAL
350
36
  0
SPATIAL_FILTER
  5
36
100
AcDbFilter
100
AcDbSpatialFilter
 70
         2
 10
133.0552911956
 20
217.6498603717
 10
209.7552911956
 20
275.3498603717
210
0.0
220
0.0
230
1.0
 11
0.0
 21
0.0
 31
0.0
 71
         1
 72
         0
 73
         0
 40
1.0
 40
0.0
 40
0.0
 40
0.0
 40
0.0
 40
1.0
 40
0.0
 40
0.0
 40
0.0
 40
0.0
 40
1.0
 40
0.0
 40
1.0
 40
0.0
 40
0.0
 40
0.0
 40
0.0
 40
1.0
 40
0.0
 40
0.0
 40
0.0
 40
0.0
 40
1.0
 40
0.0
  0
DICTIONARY
  5
3B
100
AcDbDictionary
  3
ACAD_FILTER
350
3C
  0
DICTIONARY
  5
3C
100
AcDbDictionary
  3
SPATIAL
350
3D
  0
SPATIAL_FILTER
  5
3D
100
AcDbFilter
100
AcDbSpatialFilter
 70
         2
 10
258.682882419
 20
217.6498603717
 10
279.882882419
 20
275.3498603717
210
0.0
220
0.0
230
1.0
 11
0.0
 21
0.0
 31
0.0
 71
         1
 72
         0
 73
         0
 40
1.0
 40
0.0
 40
0.0
 40
0.0
 40
0.0
 40
1.0
 40
0.0
 40
0.0
 40
0.0
 40
0.0
 40
1.0
 40
0.0
 40
1.0
 40
0.0
 40
0.0
 40
0.0
 40
0.0
 40
1.0
 40
0.0
 40
0.0
 40
0.0
 40
0.0
 40
1.0
 40
0.0
  0
DICTIONARY
  5
42
100
AcDbDictionary
  3
ACAD_FILTER
350
43
  0
DICTIONARY
  5
43
100
AcDbDictionary
  3
SPATIAL
350
44
  0
SPATIAL_FILTER
  5
44
100
AcDbFilter
100
AcDbSpatialFilter
 70
         2
 10
226.6412581993
 20
127.992559602
 10
290.6064998353
 20
205.2278108535
210
0.0
220
0.0
230
1.0
 11
0.0
 21
0.0
 31
0.0
 71
         1
 72
         0
 73
         0
 40
1.0
 40
0.0
 40
0.0
 40
0.0
 40
0.0
 40
1.0
 40
0.0
 40
0.0
 40
0.0
 40
0.0
 40
1.0
 40
0.0
 40
1.0
 40
0.0
 40
0.0
 40
0.0
 40
0.0
 40
1.0
 40
0.0
 40
0.0
 40
0.0
 40
0.0
 40
1.0
 40
0.0
  0
ENDSEC
  0
EOF
